HIERARCHY
ROOT Hips
{
  OFFSET 51.4582 93.7751 21.8388
  CHANNELS 6 Xposition Yposition Zposition Zrotation Xrotation Yrotation
  JOINT spine
  {
    OFFSET 0 7.4756 0.429885
    CHANNELS 3 Zrotation Xrotation Yrotation
    JOINT spine1
    {
      OFFSET 0 9.92301 0
      CHANNELS 3 Zrotation Xrotation Yrotation
      JOINT spine2
      {
        OFFSET 0 9.50804 0
        CHANNELS 3 Zrotation Xrotation Yrotation
        JOINT Neck
        {
          OFFSET 0 24.4111 1.16384
          CHANNELS 3 Zrotation Xrotation Yrotation
          JOINT Head
          {
            OFFSET 0 7.37523 0
            CHANNELS 3 Zrotation Xrotation Yrotation
            End Site
            {
              OFFSET 0 17.8522 -5.88741
            }
          }
        }
        JOINT RightShoulder
        {
          OFFSET -4.00356 10.2679 -0.557468
          CHANNELS 3 Zrotation Xrotation Yrotation
          JOINT RightArm
          {
            OFFSET 0 13.4673 0
            CHANNELS 3 Zrotation Xrotation Yrotation
            JOINT RightArmRoll
            {
              OFFSET 0 6.79858 0
              CHANNELS 3 Zrotation Xrotation Yrotation
              JOINT RightForeArm
              {
                OFFSET 0 19.8018 0
                CHANNELS 3 Zrotation Xrotation Yrotation
                JOINT RightForeArmRoll
                {
                  OFFSET 0 7.62905 0
                  CHANNELS 3 Zrotation Xrotation Yrotation
                  JOINT RightHand
                  {
                    OFFSET 0 15.3098 0
                    CHANNELS 3 Zrotation Xrotation Yrotation
                    End Site
                    {
                      OFFSET 0 0 0
                    }
                  }
                }
              }
            }
          }
        }
        JOINT LeftShoulder
        {
          OFFSET 4.00356 10.2679 -0.557468
          CHANNELS 3 Zrotation Xrotation Yrotation
          JOINT LeftArm
          {
            OFFSET 0 13.4673 0
            CHANNELS 3 Zrotation Xrotation Yrotation
            JOINT LeftArmRoll
            {
              OFFSET 0 6.79858 0
              CHANNELS 3 Zrotation Xrotation Yrotation
              JOINT LeftForeArm
              {
                OFFSET 0 19.8018 0
                CHANNELS 3 Zrotation Xrotation Yrotation
                JOINT LeftForeArmRoll
                {
                  OFFSET 0 7.62905 0
                  CHANNELS 3 Zrotation Xrotation Yrotation
                  JOINT LeftHand
                  {
                    OFFSET 0 15.3098 0
                    CHANNELS 3 Zrotation Xrotation Yrotation
                    End Site
                    {
                      OFFSET 0 0 0
                    }
                  }
                }
              }
            }
          }
        }
      }
    }
  }
  JOINT RightUpLeg
  {
    OFFSET -6.62609 -1.21505 -1.01927
    CHANNELS 3 Zrotation Xrotation Yrotation
    JOINT RightUpLegRoll
    {
      OFFSET 0 17.9517 0
      CHANNELS 3 Zrotation Xrotation Yrotation
      JOINT RightLeg
      {
        OFFSET 0 -22.2304 0
        CHANNELS 3 Zrotation Xrotation Yrotation
        JOINT RightLegRoll
        {
          OFFSET 0 22.3032 0
          CHANNELS 3 Zrotation Xrotation Yrotation
          JOINT RightFoot
          {
            OFFSET 0 18.5636 0
            CHANNELS 3 Zrotation Xrotation Yrotation
            JOINT RightToeBase
            {
              OFFSET 0 15.5183 0
              CHANNELS 3 Zrotation Xrotation Yrotation
              End Site
              {
                OFFSET 0.00657761 7.51539 -0.866262
              }
            }
          }
        }
      }
    }
  }
  JOINT LeftUpLeg
  {
    OFFSET 6.62609 -1.21505 -1.01927
    CHANNELS 3 Zrotation Xrotation Yrotation
    JOINT LeftUpLegRoll
    {
      OFFSET 0 17.9518 0
      CHANNELS 3 Zrotation Xrotation Yrotation
      JOINT LeftLeg
      {
        OFFSET 0 22.2303 0
        CHANNELS 3 Zrotation Xrotation Yrotation
        JOINT LeftLegRoll
        {
          OFFSET 0 22.5093 0
          CHANNELS 3 Zrotation Xrotation Yrotation
          JOINT LeftFoot
          {
            OFFSET 0 18.3575 0
            CHANNELS 3 Zrotation Xrotation Yrotation
            JOINT LeftToeBase
            {
              OFFSET 0 15.5183 0
              CHANNELS 3 Zrotation Xrotation Yrotation
              End Site
              {
                OFFSET -0.029478 7.51539 -0.866263
              }
            }
          }
        }
      }
    }
  }
}
MOTION
Frames: 12
Frame Time: 0.00208333
52.3296 93.3875 23.1947 1.00618 -2.22801 0.293651 0.0375176 -1.20309 0.192361 0.0848012 1.59667 0.382543 0.0801446 3.24173 0.381243 -12.0558 9.93052 -1.5148 13.641 4.95197 -3.68256 60.1296 -4.23001 -2.71616 110.336 10.4137 26.2855 6.98099e-007 7.9971e-007 -8.22488e-006 0.0944928 0.0123363 -1.42127 -4.80726e-006 1.3537e-007 -3.05468 8.03025 -4.95136 0.697652 -72.7716 -5.1635 4.01649 -99.7381 9.95851 -28.5405 1.35306e-006 -1.60787e-006 2.30773e-007 2.93669 -0.0190207 0.838911 8.60633e-006 -2.0203e-006 3.02292 -8.03011 -4.95139 -0.697649 -179.447 -1.08391 -0.892329 180 7.0155e-015 178.936 177.453 7.02499 179.812 -3.40799e-006 2.75706e-007 0.116178 -19.4841 69.1128 20.499 8.14427 25.2322 -3.49105 -179.116 -1.05478 2.3677 4.54188e-006 -4.6773e-006 -1.06537 -2.84159 -8.67015 0.0533327 -3.26638e-006 7.70834e-007 -0.093057 18.2683 67.6101 -19.2163 -8.1418 25.2321 3.48982 
52.3444 93.3881 23.1971 1.01262 -2.20383 0.259648 0.0386457 -1.20647 0.193161 0.0865186 1.5898 0.383795 0.081858 3.23486 0.382475 -12.1027 9.88144 -1.50109 13.6632 4.96031 -3.67472 60.1126 -4.21255 -2.70437 110.351 10.4792 26.2669 6.98099e-007 7.9971e-007 -8.22488e-006 0.0871622 0.0123363 -1.42127 -4.80726e-006 1.3537e-007 -3.05468 8.03025 -4.95136 0.697652 -72.7597 -5.19096 4.0286 -99.7097 10.003 -28.5187 1.35306e-006 -1.60787e-006 2.30773e-007 2.92191 -0.0190208 0.838906 8.60633e-006 -2.0203e-006 3.02292 -8.03011 -4.95139 -0.697649 -179.461 -1.04909 -0.891365 180 7.0155e-015 178.936 177.458 7.04076 179.811 -3.40799e-006 2.75706e-007 0.116281 -19.4877 69.1167 20.5025 8.14427 25.2322 -3.49105 -179.122 -1.07067 2.35552 4.54188e-006 -4.6773e-006 -1.06442 -2.87056 -8.61875 0.0513151 -3.26638e-006 7.70834e-007 -0.0929746 18.2636 67.6043 -19.2123 -8.14176 25.2315 3.4893 
52.3552 93.3928 23.2084 1.01962 -2.1794 0.225245 0.0396781 -1.21009 0.193953 0.0880214 1.58246 0.385032 0.0833571 3.22751 0.383694 -12.1508 9.83356 -1.487 13.6863 4.96861 -3.66685 60.0944 -4.19465 -2.69223 110.367 10.5439 26.2485 6.98099e-007 7.9971e-007 -8.22488e-006 0.0795952 0.0123363 -1.42126 -4.80726e-006 1.3537e-007 -3.05467 8.03025 -4.95136 0.697652 -72.7486 -5.21831 4.04071 -99.6799 10.0453 -28.4971 1.35306e-006 -1.60787e-006 2.30773e-007 2.90613 -0.0190209 0.8389 8.60633e-006 -2.0203e-006 3.02292 -8.03011 -4.95139 -0.697649 -179.475 -1.01447 -0.89016 180 7.0155e-015 178.936 177.464 7.05535 179.811 -3.40799e-006 2.75706e-007 0.116353 -19.4911 69.1204 20.5058 8.14427 25.2322 -3.49105 -179.127 -1.08735 2.3434 4.54188e-006 -4.6773e-006 -1.06346 -2.89996 -8.56572 0.0492651 -3.26638e-006 7.70834e-007 -0.0928996 18.2592 67.5987 -19.2086 -8.14169 25.2305 3.48854 
52.3718 93.3916 23.2169 1.02702 -2.15478 0.190561 0.0406434 -1.21387 0.194739 0.0893741 1.57478 0.386256 0.0847063 3.21983 0.384905 -12.1996 9.78651 -1.47265 13.7101 4.97688 -3.65896 60.0755 -4.17644 -2.67986 110.385 10.6081 26.2303 6.98099e-007 7.9971e-007 -8.22488e-006 0.0718628 0.0123363 -1.42126 -4.80726e-006 1.3537e-007 -3.05466 8.03025 -4.95136 0.697652 -72.7381 -5.24558 4.05281 -99.6491 10.0863 -28.4756 1.35306e-006 -1.60787e-006 2.30773e-007 2.88965 -0.0190209 0.838894 8.60633e-006 -2.0203e-006 3.02292 -8.03011 -4.95139 -0.697649 -179.49 -0.97998 -0.888787 180 7.0155e-015 178.936 177.469 7.06911 179.811 -3.40799e-006 2.75706e-007 0.116402 -19.4945 69.124 20.5091 8.14427 25.2322 -3.49105 -179.133 -1.10459 2.33131 4.54188e-006 -4.6773e-006 -1.06249 -2.92965 -8.51153 0.0471927 -3.26638e-006 7.70834e-007 -0.0928297 18.2548 67.5933 -19.2049 -8.14161 25.2293 3.48759 
52.3863 93.3915 23.2261 1.03465 -2.13005 0.155719 0.0415705 -1.21774 0.195522 0.090641 1.56691 0.387475 0.08597 3.21197 0.386111 -12.249 9.73995 -1.45815 13.7343 4.98514 -3.65106 60.0561 -4.15806 -2.66735 110.403 10.672 26.2123 6.98099e-007 7.9971e-007 -8.22488e-006 0.0640358 0.0123363 -1.42126 -4.80726e-006 1.3537e-007 -3.05464 8.03025 -4.95136 0.697652 -72.7279 -5.27281 4.0649 -99.6178 10.1264 -28.4541 1.35306e-006 -1.60787e-006 2.30773e-007 2.87277 -0.0190209 0.838887 8.60633e-006 -2.0203e-006 3.02292 -8.03011 -4.95139 -0.697649 -179.504 -0.94557 -0.887318 180 7.0155e-015 178.936 177.475 7.08244 179.811 -3.40799e-006 2.75706e-007 0.116438 -19.4978 69.1276 20.5122 8.14427 25.2322 -3.49105 -179.14 -1.12214 2.31926 4.54188e-006 -4.6773e-006 -1.06152 -2.95952 -8.45669 0.0451076 -3.26638e-006 7.70834e-007 -0.0927629 18.2506 67.5879 -19.2014 -8.14152 25.2279 3.48655 
52.4035 93.3971 23.2285 1.04237 -2.1053 0.120837 0.0424881 -1.22164 0.196304 0.0918868 1.55899 0.388691 0.0872126 3.20405 0.387315 -12.2983 9.6935 -1.44362 13.7587 4.9934 -3.64316 60.0366 -4.13963 -2.6548 110.421 10.7358 26.1943 6.98099e-007 7.9971e-007 -8.22488e-006 0.0561852 0.0123363 -1.42126 -4.80726e-006 1.3537e-007 -3.05463 8.03025 -4.95136 0.697652 -72.7178 -5.30002 4.07699 -99.5864 10.1663 -28.4327 1.35306e-006 -1.60787e-006 2.30773e-007 2.85579 -0.0190209 0.83888 8.60633e-006 -2.0203e-006 3.02292 -8.03011 -4.95139 -0.697649 -179.519 -0.91118 -0.885826 180 7.0155e-015 178.936 177.48 7.09562 179.811 -3.40799e-006 2.75706e-007 0.116471 -19.5011 69.1312 20.5154 8.14427 25.2322 -3.49105 -179.146 -1.13978 2.30721 4.54188e-006 -4.6773e-006 -1.06054 -2.98942 -8.40168 0.04302 -3.26638e-006 7.70834e-007 -0.0926968 18.2464 67.5826 -19.1978 -8.14143 25.2265 3.48548 
52.416 93.392 23.2379 1.05002 -2.0806 0.0860363 0.043425 -1.22549 0.197087 0.093176 1.55117 0.389911 0.0884984 3.19623 0.388522 -12.3475 9.64681 -1.42916 13.7828 5.00166 -3.63526 60.0174 -4.12129 -2.64232 110.439 10.7999 26.1762 6.98099e-007 7.9971e-007 -8.22488e-006 0.0483819 0.0123363 -1.42126 -4.80726e-006 1.3537e-007 -3.05462 8.03025 -4.95136 0.697652 -72.7075 -5.32725 4.08909 -99.5553 10.2067 -28.4112 1.35306e-006 -1.60787e-006 2.30773e-007 2.839 -0.019021 0.838874 8.60633e-006 -2.0203e-006 3.02292 -8.03011 -4.95139 -0.697649 -179.534 -0.876751 -0.884382 180 7.0155e-015 178.936 177.486 7.10905 179.81 -3.40799e-006 2.75706e-007 0.11651 -19.5044 69.1348 20.5186 8.14427 25.2322 -3.49105 -179.152 -1.15725 2.29514 4.54188e-006 -4.6773e-006 -1.05957 -3.01923 -8.34701 0.0409395 -3.26638e-006 7.70834e-007 -0.0926292 18.2422 67.5773 -19.1943 -8.14135 25.2252 3.48447 
52.4338 93.394 23.2362 1.05743 -2.05602 0.0514378 0.0444099 -1.22922 0.197875 0.0945729 1.54359 0.391139 0.0898919 3.18865 0.389736 -12.396 9.59952 -1.41491 13.8064 5.00994 -3.62737 59.9986 -4.10317 -2.63002 110.456 10.8643 26.1581 6.98099e-007 7.9971e-007 -8.22488e-006 0.0406968 0.0123363 -1.42126 -4.80726e-006 1.3537e-007 -3.0546 8.03025 -4.95136 0.697652 -72.6967 -5.35454 4.10119 -99.5249 10.2481 -28.3897 1.35306e-006 -1.60787e-006 2.30773e-007 2.82272 -0.019021 0.838868 8.60633e-006 -2.0203e-006 3.02292 -8.03011 -4.95139 -0.697649 -179.548 -0.842224 -0.883058 180 7.0155e-015 178.936 177.491 7.12305 179.81 -3.40799e-006 2.75706e-007 0.116565 -19.5078 69.1384 20.5219 8.14427 25.2322 -3.49105 -179.158 -1.17433 2.28305 4.54188e-006 -4.6773e-006 -1.0586 -3.04882 -8.29315 0.0388762 -3.26638e-006 7.70834e-007 -0.0925579 18.2379 67.5718 -19.1906 -8.14127 25.2241 3.48357 
52.4505 93.3953 23.2459 1.06445 -2.03166 0.0171616 0.0454716 -1.23276 0.198669 0.0961421 1.53639 0.39238 0.0914572 3.18144 0.390959 -12.4436 9.55128 -1.40097 13.8292 5.01825 -3.61951 59.9808 -4.0854 -2.61799 110.472 10.9294 26.1399 6.98099e-007 7.9971e-007 -8.22488e-006 0.0332007 0.0123363 -1.42125 -4.80726e-006 1.3537e-007 -3.0546 8.03025 -4.95136 0.697652 -72.6854 -5.38192 4.11332 -99.4958 10.2912 -28.3682 1.35306e-006 -1.60787e-006 2.30773e-007 2.80724 -0.0190211 0.838862 8.60633e-006 -2.0203e-006 3.02292 -8.03011 -4.95139 -0.697649 -179.562 -0.807542 -0.881928 180 7.0155e-015 178.936 177.496 7.13799 179.81 -3.40799e-006 2.75706e-007 0.116646 -19.5113 69.1422 20.5253 8.14427 25.2322 -3.49105 -179.164 -1.19078 2.27091 4.54188e-006 -4.6773e-006 -1.05765 -3.07807 -8.24061 0.0368397 -3.26638e-006 7.70834e-007 -0.0924807 18.2333 67.5662 -19.1868 -8.14121 25.2232 3.48288 
52.4521 93.3917 23.2639 1.07092 -2.00759 -0.0166718 0.0466389 -1.23605 0.199472 0.097948 1.52971 0.393639 0.0932589 3.17477 0.392195 -12.4899 9.5017 -1.38746 13.851 5.02661 -3.61168 59.9641 -4.06811 -2.60634 110.487 10.9954 26.1214 6.98099e-007 7.9971e-007 -8.22488e-006 0.0259645 0.0123363 -1.42125 -4.80726e-006 1.3537e-007 -3.0546 8.03025 -4.95136 0.697652 -72.6731 -5.40941 4.12546 -99.4682 10.3366 -28.3465 1.35306e-006 -1.60787e-006 2.30773e-007 2.79286 -0.0190212 0.838857 8.60633e-006 -2.0203e-006 3.02292 -8.03011 -4.95139 -0.697649 -179.575 -0.772646 -0.881062 180 7.0155e-015 178.936 177.502 7.15423 179.81 -3.40799e-006 2.75706e-007 0.116763 -19.5149 69.1461 20.5288 8.14427 25.2322 -3.49105 -179.169 -1.20635 2.25871 4.54188e-006 -4.6773e-006 -1.0567 -3.10683 -8.18987 0.03484 -3.26638e-006 7.70834e-007 -0.0923953 18.2286 67.5603 -19.1827 -8.14118 25.2226 3.48247 
52.4716 93.3874 23.2681 1.07668 -1.98388 -0.049942 0.0479405 -1.23901 0.200287 0.100055 1.5237 0.394921 0.0953613 3.16876 0.393449 -12.5345 9.45045 -1.37449 13.8714 5.03501 -3.60388 59.9489 -4.05143 -2.59517 110.5 11.0625 26.1026 6.98099e-007 7.9971e-007 -8.22488e-006 0.0190593 0.0123363 -1.42125 -4.80726e-006 1.3537e-007 -3.0546 8.03025 -4.95136 0.697652 -72.6597 -5.43707 4.13763 -99.4427 10.385 -28.3246 1.35306e-006 -1.60787e-006 2.30773e-007 2.77988 -0.0190214 0.838852 8.60633e-006 -2.0203e-006 3.02292 -8.03011 -4.95139 -0.697649 -179.588 -0.737478 -0.880533 180 7.0155e-015 178.936 177.507 7.1721 179.809 -3.40799e-006 2.75706e-007 0.116924 -19.5187 69.1502 20.5325 8.14427 25.2322 -3.49105 -179.174 -1.22082 2.24642 4.54188e-006 -4.6773e-006 -1.05576 -3.13499 -8.14144 0.0328868 -3.26638e-006 7.70834e-007 -0.0922995 18.2236 67.5541 -19.1783 -8.14117 25.2225 3.48241 
52.4783 93.3879 23.2684 1.08156 -1.96062 -0.0825286 0.0494051 -1.24157 0.201115 0.102528 1.5185 0.396229 0.0978285 3.16355 0.394724 -12.5772 9.39716 -1.36219 13.8902 5.04348 -3.59613 59.9356 -4.0355 -2.58459 110.511 11.131 26.0836 6.98099e-007 7.9971e-007 -8.22488e-006 0.0125558 0.0123363 -1.42125 -4.80726e-006 1.3537e-007 -3.05462 8.03025 -4.95136 0.697652 -72.6448 -5.46491 4.14982 -99.4197 10.4369 -28.3025 1.35306e-006 -1.60787e-006 2.30773e-007 2.7686 -0.0190217 0.838849 8.60633e-006 -2.0203e-006 3.02292 -8.03011 -4.95139 -0.697649 -179.599 -0.70198 -0.880414 180 7.0155e-015 178.936 177.513 7.19195 179.809 -3.40799e-006 2.75706e-007 0.117139 -19.5228 69.1545 20.5364 8.14427 25.2322 -3.49105 -179.178 -1.23395 2.23403 4.54188e-006 -4.6773e-006 -1.05484 -3.16241 -8.09579 0.03099 -3.26638e-006 7.70834e-007 -0.0921911 18.2183 67.5474 -19.1736 -8.1412 25.223 3.48277 
